<svg xmlns:xlink="http://www.w3.org/1999/xlink" class="icon-inline icon-5x svg-icon-text" xmlns="http://www.w3.org/2000/svg" viewBox="0 0 51 51" width="75"  height="75" ><path d="M25.5,0A25.5,25.5,0,1,0,51,25.5,25.53,25.53,0,0,0,25.5,0Zm0,50A24.5,24.5,0,1,1,50,25.5,24.53,24.53,0,0,1,25.5,50ZM39.11,28.83l-1.6.58L33,16.88a.53.53,0,0,0-.26-.29.5.5,0,0,0-.38,0l-12.64,4.6-1.11-3c0-.12-.71-2.84-3-2.91-1.06,0-4.93.06-5.09.06a.51.51,0,0,0-.49.51.55.55,0,0,0,.52.49s4-.1,5-.06c1.53.05,2.06,2.12,2.08,2.2l5.12,14.08a4,4,0,1,0,4.63,1.65l12.09-4.4a.5.5,0,1,0-.34-.94ZM20,22.12,25.9,20v0l1.6,4.39a.49.49,0,0,0,.47.33.51.51,0,0,0,.17,0,.5.5,0,0,0,.3-.64l-1.6-4.39v0l5.35-1.94,4.39,12.06-9.9,3.61A4,4,0,0,0,24,32.3l-.25,0ZM24,39.3a3,3,0,1,1,3-3A3,3,0,0,1,24,39.3Z" fill="#7F8C8D"></path></svg>