<svg xmlns:xlink="http://www.w3.org/1999/xlink" class="icon-inline icon-5x svg-icon-text" xmlns="http://www.w3.org/2000/svg" viewBox="0 0 51 51" width="75"  height="75" ><path d="M25.5,39a.51.51,0,0,1-.17,0c-9.9-3.55-12.9-15.81-12.3-21.59a.51.51,0,0,1,.31-.41l12-4.93a.5.5,0,0,1,.38,0l12,4.93a.51.51,0,0,1,.31.41c.6,5.78-2.4,18-12.3,21.59A.51.51,0,0,1,25.5,39ZM14,17.78C13.56,23.36,16.42,34.59,25.5,38,34.58,34.59,37.44,23.36,37,17.78L25.5,13ZM23.72,30.4l9.84-9.76a.5.5,0,0,0-.71-.71l-9.49,9.41-4.48-4.46a.5.5,0,0,0-.7.71L23,30.4a.5.5,0,0,0,.35.15A.51.51,0,0,0,23.72,30.4ZM25.5,51A25.5,25.5,0,1,1,51,25.5,25.53,25.53,0,0,1,25.5,51Zm0-50A24.5,24.5,0,1,0,50,25.5,24.53,24.53,0,0,0,25.5,1Z" fill="#7F8C8D"></path></svg>