<svg xmlns:xlink="http://www.w3.org/1999/xlink" class="icon-inline icon-5x svg-icon-text" xmlns="http://www.w3.org/2000/svg" viewBox="0 0 51 51" width="75"  height="75" ><path d="M25.5,51A25.5,25.5,0,1,1,51,25.5,25.53,25.53,0,0,1,25.5,51Zm0-50A24.5,24.5,0,1,0,50,25.5,24.53,24.53,0,0,0,25.5,1Zm10,35h-20A3.5,3.5,0,0,1,12,32.5v-13A3.5,3.5,0,0,1,15.5,16h20A3.5,3.5,0,0,1,39,19.5v13A3.5,3.5,0,0,1,35.5,36Zm-20-19A2.5,2.5,0,0,0,13,19.5v13A2.5,2.5,0,0,0,15.5,35h20A2.5,2.5,0,0,0,38,32.5v-13A2.5,2.5,0,0,0,35.5,17ZM22,31.5a.5.5,0,0,0-.5-.5h-5a.5.5,0,0,0,0,1h5A.5.5,0,0,0,22,31.5Zm7,0a.5.5,0,0,0-.5-.5h-5a.5.5,0,0,0,0,1h5A.5.5,0,0,0,29,31.5Zm7,0a.5.5,0,0,0-.5-.5h-5a.5.5,0,0,0,0,1h5A.5.5,0,0,0,36,31.5Zm0-11a.5.5,0,0,0-.5-.5h-2a.5.5,0,0,0,0,1h2A.5.5,0,0,0,36,20.5ZM21.5,26h-5a.5.5,0,0,1-.5-.5v-5a.5.5,0,0,1,.5-.5h5a.5.5,0,0,1,.5.5v5A.5.5,0,0,1,21.5,26ZM17,25h4V21H17Z" fill="#7F8C8D"></path></svg>